# xmcd CD database file
#
# Track frame offsets:
#	150
#	32701
#	58911
#	94605
#	120843
#	162519
#	204027
#
# Disc length: 3291 seconds
#
# Revision: 0
# Processed by: cddbd v1.5.2PL0 Copyright (c) Steve Scherf et al.
# Submitted via: CDex 1.50
#
DISCID=500cd907
DTITLE=Simon Denizart Trio - Beautiful People
DYEAR=2016
DGENRE=Jazz
TTITLE0=A Day in Hell
TTITLE1=Pocket Wheels
TTITLE2=Family Time
TTITLE3=Beautiful People
TTITLE4=Skyline
TTITLE5=Last Dance
TTITLE6=Monique
EXTD=YEAR: 2016
EXTT0=
EXTT1=
EXTT2=
EXTT3=
EXTT4=
EXTT5=
EXTT6=
PLAYORDER=
